<?xml version="1.0" encoding="utf-8" standalone="no"?>
<!DOCTYPE svg PUBLIC "-//W3C//DTD SVG 1.1//EN"
  "http://www.w3.org/Graphics/SVG/1.1/DTD/svg11.dtd">
<!-- Created with matplotlib (https://matplotlib.org/) -->
<svg height="345.6pt" version="1.1" viewBox="0 0 460.8 345.6" width="460.8pt" xmlns="http://www.w3.org/2000/svg" xmlns:xlink="http://www.w3.org/1999/xlink">
 <defs>
  <style type="text/css">
*{stroke-linecap:butt;stroke-linejoin:round;}
  </style>
 </defs>
 <g id="figure_1">
  <g id="patch_1">
   <path d="M 0 345.6 
L 460.8 345.6 
L 460.8 0 
L 0 0 
z
" style="fill:#ffffff;"/>
  </g>
  <g id="axes_1">
   <g id="patch_2">
    <path d="M 57.6 307.584 
L 414.72 307.584 
L 414.72 41.472 
L 57.6 41.472 
z
" style="fill:#ffffff;"/>
   </g>
   <g id="matplotlib.axis_1">
    <g id="xtick_1">
     <g id="line2d_1">
      <defs>
       <path d="M 0 0 
L 0 3.5 
" id="m511949162a" style="stroke:#000000;stroke-width:0.8;"/>
      </defs>
      <g>
       <use style="stroke:#000000;stroke-width:0.8;" x="73.832727" xlink:href="#m511949162a" y="307.584"/>
      </g>
     </g>
     <g id="text_1">
      <!-- 0.0 -->
      <defs>
       <path d="M 31.78125 66.40625 
Q 24.171875 66.40625 20.328125 58.90625 
Q 16.5 51.421875 16.5 36.375 
Q 16.5 21.390625 20.328125 13.890625 
Q 24.171875 6.390625 31.78125 6.390625 
Q 39.453125 6.390625 43.28125 13.890625 
Q 47.125 21.390625 47.125 36.375 
Q 47.125 51.421875 43.28125 58.90625 
Q 39.453125 66.40625 31.78125 66.40625 
z
M 31.78125 74.21875 
Q 44.046875 74.21875 50.515625 64.515625 
Q 56.984375 54.828125 56.984375 36.375 
Q 56.984375 17.96875 50.515625 8.265625 
Q 44.046875 -1.421875 31.78125 -1.421875 
Q 19.53125 -1.421875 13.0625 8.265625 
Q 6.59375 17.96875 6.59375 36.375 
Q 6.59375 54.828125 13.0625 64.515625 
Q 19.53125 74.21875 31.78125 74.21875 
z
" id="DejaVuSans-48"/>
       <path d="M 10.6875 12.40625 
L 21 12.40625 
L 21 0 
L 10.6875 0 
z
" id="DejaVuSans-46"/>
      </defs>
      <g transform="translate(65.881165 322.182437)scale(0.1 -0.1)">
       <use xlink:href="#DejaVuSans-48"/>
       <use x="63.623047" xlink:href="#DejaVuSans-46"/>
       <use x="95.410156" xlink:href="#DejaVuSans-48"/>
      </g>
     </g>
    </g>
    <g id="xtick_2">
     <g id="line2d_2">
      <g>
       <use style="stroke:#000000;stroke-width:0.8;" x="138.763636" xlink:href="#m511949162a" y="307.584"/>
      </g>
     </g>
     <g id="text_2">
      <!-- 0.2 -->
      <defs>
       <path d="M 19.1875 8.296875 
L 53.609375 8.296875 
L 53.609375 0 
L 7.328125 0 
L 7.328125 8.296875 
Q 12.9375 14.109375 22.625 23.890625 
Q 32.328125 33.6875 34.8125 36.53125 
Q 39.546875 41.84375 41.421875 45.53125 
Q 43.3125 49.21875 43.3125 52.78125 
Q 43.3125 58.59375 39.234375 62.25 
Q 35.15625 65.921875 28.609375 65.921875 
Q 23.96875 65.921875 18.8125 64.3125 
Q 13.671875 62.703125 7.8125 59.421875 
L 7.8125 69.390625 
Q 13.765625 71.78125 18.9375 73 
Q 24.125 74.21875 28.421875 74.21875 
Q 39.75 74.21875 46.484375 68.546875 
Q 53.21875 62.890625 53.21875 53.421875 
Q 53.21875 48.921875 51.53125 44.890625 
Q 49.859375 40.875 45.40625 35.40625 
Q 44.1875 33.984375 37.640625 27.21875 
Q 31.109375 20.453125 19.1875 8.296875 
z
" id="DejaVuSans-50"/>
      </defs>
      <g transform="translate(130.812074 322.182437)scale(0.1 -0.1)">
       <use xlink:href="#DejaVuSans-48"/>
       <use x="63.623047" xlink:href="#DejaVuSans-46"/>
       <use x="95.410156" xlink:href="#DejaVuSans-50"/>
      </g>
     </g>
    </g>
    <g id="xtick_3">
     <g id="line2d_3">
      <g>
       <use style="stroke:#000000;stroke-width:0.8;" x="203.694545" xlink:href="#m511949162a" y="307.584"/>
      </g>
     </g>
     <g id="text_3">
      <!-- 0.4 -->
      <defs>
       <path d="M 37.796875 64.3125 
L 12.890625 25.390625 
L 37.796875 25.390625 
z
M 35.203125 72.90625 
L 47.609375 72.90625 
L 47.609375 25.390625 
L 58.015625 25.390625 
L 58.015625 17.1875 
L 47.609375 17.1875 
L 47.609375 0 
L 37.796875 0 
L 37.796875 17.1875 
L 4.890625 17.1875 
L 4.890625 26.703125 
z
" id="DejaVuSans-52"/>
      </defs>
      <g transform="translate(195.742983 322.182437)scale(0.1 -0.1)">
       <use xlink:href="#DejaVuSans-48"/>
       <use x="63.623047" xlink:href="#DejaVuSans-46"/>
       <use x="95.410156" xlink:href="#DejaVuSans-52"/>
      </g>
     </g>
    </g>
    <g id="xtick_4">
     <g id="line2d_4">
      <g>
       <use style="stroke:#000000;stroke-width:0.8;" x="268.625455" xlink:href="#m511949162a" y="307.584"/>
      </g>
     </g>
     <g id="text_4">
      <!-- 0.6 -->
      <defs>
       <path d="M 33.015625 40.375 
Q 26.375 40.375 22.484375 35.828125 
Q 18.609375 31.296875 18.609375 23.390625 
Q 18.609375 15.53125 22.484375 10.953125 
Q 26.375 6.390625 33.015625 6.390625 
Q 39.65625 6.390625 43.53125 10.953125 
Q 47.40625 15.53125 47.40625 23.390625 
Q 47.40625 31.296875 43.53125 35.828125 
Q 39.65625 40.375 33.015625 40.375 
z
M 52.59375 71.296875 
L 52.59375 62.3125 
Q 48.875 64.0625 45.09375 64.984375 
Q 41.3125 65.921875 37.59375 65.921875 
Q 27.828125 65.921875 22.671875 59.328125 
Q 17.53125 52.734375 16.796875 39.40625 
Q 19.671875 43.65625 24.015625 45.921875 
Q 28.375 48.1875 33.59375 48.1875 
Q 44.578125 48.1875 50.953125 41.515625 
Q 57.328125 34.859375 57.328125 23.390625 
Q 57.328125 12.15625 50.6875 5.359375 
Q 44.046875 -1.421875 33.015625 -1.421875 
Q 20.359375 -1.421875 13.671875 8.265625 
Q 6.984375 17.96875 6.984375 36.375 
Q 6.984375 53.65625 15.1875 63.9375 
Q 23.390625 74.21875 37.203125 74.21875 
Q 40.921875 74.21875 44.703125 73.484375 
Q 48.484375 72.75 52.59375 71.296875 
z
" id="DejaVuSans-54"/>
      </defs>
      <g transform="translate(260.673892 322.182437)scale(0.1 -0.1)">
       <use xlink:href="#DejaVuSans-48"/>
       <use x="63.623047" xlink:href="#DejaVuSans-46"/>
       <use x="95.410156" xlink:href="#DejaVuSans-54"/>
      </g>
     </g>
    </g>
    <g id="xtick_5">
     <g id="line2d_5">
      <g>
       <use style="stroke:#000000;stroke-width:0.8;" x="333.556364" xlink:href="#m511949162a" y="307.584"/>
      </g>
     </g>
     <g id="text_5">
      <!-- 0.8 -->
      <defs>
       <path d="M 31.78125 34.625 
Q 24.75 34.625 20.71875 30.859375 
Q 16.703125 27.09375 16.703125 20.515625 
Q 16.703125 13.921875 20.71875 10.15625 
Q 24.75 6.390625 31.78125 6.390625 
Q 38.8125 6.390625 42.859375 10.171875 
Q 46.921875 13.96875 46.921875 20.515625 
Q 46.921875 27.09375 42.890625 30.859375 
Q 38.875 34.625 31.78125 34.625 
z
M 21.921875 38.8125 
Q 15.578125 40.375 12.03125 44.71875 
Q 8.5 49.078125 8.5 55.328125 
Q 8.5 64.0625 14.71875 69.140625 
Q 20.953125 74.21875 31.78125 74.21875 
Q 42.671875 74.21875 48.875 69.140625 
Q 55.078125 64.0625 55.078125 55.328125 
Q 55.078125 49.078125 51.53125 44.71875 
Q 48 40.375 41.703125 38.8125 
Q 48.828125 37.15625 52.796875 32.3125 
Q 56.78125 27.484375 56.78125 20.515625 
Q 56.78125 9.90625 50.3125 4.234375 
Q 43.84375 -1.421875 31.78125 -1.421875 
Q 19.734375 -1.421875 13.25 4.234375 
Q 6.78125 9.90625 6.78125 20.515625 
Q 6.78125 27.484375 10.78125 32.3125 
Q 14.796875 37.15625 21.921875 38.8125 
z
M 18.3125 54.390625 
Q 18.3125 48.734375 21.84375 45.5625 
Q 25.390625 42.390625 31.78125 42.390625 
Q 38.140625 42.390625 41.71875 45.5625 
Q 45.3125 48.734375 45.3125 54.390625 
Q 45.3125 60.0625 41.71875 63.234375 
Q 38.140625 66.40625 31.78125 66.40625 
Q 25.390625 66.40625 21.84375 63.234375 
Q 18.3125 60.0625 18.3125 54.390625 
z
" id="DejaVuSans-56"/>
      </defs>
      <g transform="translate(325.604801 322.182437)scale(0.1 -0.1)">
       <use xlink:href="#DejaVuSans-48"/>
       <use x="63.623047" xlink:href="#DejaVuSans-46"/>
       <use x="95.410156" xlink:href="#DejaVuSans-56"/>
      </g>
     </g>
    </g>
    <g id="xtick_6">
     <g id="line2d_6">
      <g>
       <use style="stroke:#000000;stroke-width:0.8;" x="398.487273" xlink:href="#m511949162a" y="307.584"/>
      </g>
     </g>
     <g id="text_6">
      <!-- 1.0 -->
      <defs>
       <path d="M 12.40625 8.296875 
L 28.515625 8.296875 
L 28.515625 63.921875 
L 10.984375 60.40625 
L 10.984375 69.390625 
L 28.421875 72.90625 
L 38.28125 72.90625 
L 38.28125 8.296875 
L 54.390625 8.296875 
L 54.390625 0 
L 12.40625 0 
z
" id="DejaVuSans-49"/>
      </defs>
      <g transform="translate(390.53571 322.182437)scale(0.1 -0.1)">
       <use xlink:href="#DejaVuSans-49"/>
       <use x="63.623047" xlink:href="#DejaVuSans-46"/>
       <use x="95.410156" xlink:href="#DejaVuSans-48"/>
      </g>
     </g>
    </g>
    <g id="text_7">
     <!-- x -->
     <defs>
      <path d="M 54.890625 54.6875 
L 35.109375 28.078125 
L 55.90625 0 
L 45.3125 0 
L 29.390625 21.484375 
L 13.484375 0 
L 2.875 0 
L 24.125 28.609375 
L 4.6875 54.6875 
L 15.28125 54.6875 
L 29.78125 35.203125 
L 44.28125 54.6875 
z
" id="DejaVuSans-120"/>
     </defs>
     <g transform="translate(233.200625 335.860562)scale(0.1 -0.1)">
      <use xlink:href="#DejaVuSans-120"/>
     </g>
    </g>
   </g>
   <g id="matplotlib.axis_2">
    <g id="ytick_1">
     <g id="line2d_7">
      <defs>
       <path d="M 0 0 
L -3.5 0 
" id="m0f726cad2c" style="stroke:#000000;stroke-width:0.8;"/>
      </defs>
      <g>
       <use style="stroke:#000000;stroke-width:0.8;" x="57.6" xlink:href="#m0f726cad2c" y="295.488"/>
      </g>
     </g>
     <g id="text_8">
      <!-- 1.0 -->
      <g transform="translate(34.696875 299.287219)scale(0.1 -0.1)">
       <use xlink:href="#DejaVuSans-49"/>
       <use x="63.623047" xlink:href="#DejaVuSans-46"/>
       <use x="95.410156" xlink:href="#DejaVuSans-48"/>
      </g>
     </g>
    </g>
    <g id="ytick_2">
     <g id="line2d_8">
      <g>
       <use style="stroke:#000000;stroke-width:0.8;" x="57.6" xlink:href="#m0f726cad2c" y="264.661166"/>
      </g>
     </g>
     <g id="text_9">
      <!-- 1.1 -->
      <g transform="translate(34.696875 268.460385)scale(0.1 -0.1)">
       <use xlink:href="#DejaVuSans-49"/>
       <use x="63.623047" xlink:href="#DejaVuSans-46"/>
       <use x="95.410156" xlink:href="#DejaVuSans-49"/>
      </g>
     </g>
    </g>
    <g id="ytick_3">
     <g id="line2d_9">
      <g>
       <use style="stroke:#000000;stroke-width:0.8;" x="57.6" xlink:href="#m0f726cad2c" y="233.834332"/>
      </g>
     </g>
     <g id="text_10">
      <!-- 1.2 -->
      <g transform="translate(34.696875 237.633551)scale(0.1 -0.1)">
       <use xlink:href="#DejaVuSans-49"/>
       <use x="63.623047" xlink:href="#DejaVuSans-46"/>
       <use x="95.410156" xlink:href="#DejaVuSans-50"/>
      </g>
     </g>
    </g>
    <g id="ytick_4">
     <g id="line2d_10">
      <g>
       <use style="stroke:#000000;stroke-width:0.8;" x="57.6" xlink:href="#m0f726cad2c" y="203.007499"/>
      </g>
     </g>
     <g id="text_11">
      <!-- 1.3 -->
      <defs>
       <path d="M 40.578125 39.3125 
Q 47.65625 37.796875 51.625 33 
Q 55.609375 28.21875 55.609375 21.1875 
Q 55.609375 10.40625 48.1875 4.484375 
Q 40.765625 -1.421875 27.09375 -1.421875 
Q 22.515625 -1.421875 17.65625 -0.515625 
Q 12.796875 0.390625 7.625 2.203125 
L 7.625 11.71875 
Q 11.71875 9.328125 16.59375 8.109375 
Q 21.484375 6.890625 26.8125 6.890625 
Q 36.078125 6.890625 40.9375 10.546875 
Q 45.796875 14.203125 45.796875 21.1875 
Q 45.796875 27.640625 41.28125 31.265625 
Q 36.765625 34.90625 28.71875 34.90625 
L 20.21875 34.90625 
L 20.21875 43.015625 
L 29.109375 43.015625 
Q 36.375 43.015625 40.234375 45.921875 
Q 44.09375 48.828125 44.09375 54.296875 
Q 44.09375 59.90625 40.109375 62.90625 
Q 36.140625 65.921875 28.71875 65.921875 
Q 24.65625 65.921875 20.015625 65.03125 
Q 15.375 64.15625 9.8125 62.3125 
L 9.8125 71.09375 
Q 15.4375 72.65625 20.34375 73.4375 
Q 25.25 74.21875 29.59375 74.21875 
Q 40.828125 74.21875 47.359375 69.109375 
Q 53.90625 64.015625 53.90625 55.328125 
Q 53.90625 49.265625 50.4375 45.09375 
Q 46.96875 40.921875 40.578125 39.3125 
z
" id="DejaVuSans-51"/>
      </defs>
      <g transform="translate(34.696875 206.806717)scale(0.1 -0.1)">
       <use xlink:href="#DejaVuSans-49"/>
       <use x="63.623047" xlink:href="#DejaVuSans-46"/>
       <use x="95.410156" xlink:href="#DejaVuSans-51"/>
      </g>
     </g>
    </g>
    <g id="ytick_5">
     <g id="line2d_11">
      <g>
       <use style="stroke:#000000;stroke-width:0.8;" x="57.6" xlink:href="#m0f726cad2c" y="172.180665"/>
      </g>
     </g>
     <g id="text_12">
      <!-- 1.4 -->
      <g transform="translate(34.696875 175.979884)scale(0.1 -0.1)">
       <use xlink:href="#DejaVuSans-49"/>
       <use x="63.623047" xlink:href="#DejaVuSans-46"/>
       <use x="95.410156" xlink:href="#DejaVuSans-52"/>
      </g>
     </g>
    </g>
    <g id="ytick_6">
     <g id="line2d_12">
      <g>
       <use style="stroke:#000000;stroke-width:0.8;" x="57.6" xlink:href="#m0f726cad2c" y="141.353831"/>
      </g>
     </g>
     <g id="text_13">
      <!-- 1.5 -->
      <defs>
       <path d="M 10.796875 72.90625 
L 49.515625 72.90625 
L 49.515625 64.59375 
L 19.828125 64.59375 
L 19.828125 46.734375 
Q 21.96875 47.46875 24.109375 47.828125 
Q 26.265625 48.1875 28.421875 48.1875 
Q 40.625 48.1875 47.75 41.5 
Q 54.890625 34.8125 54.890625 23.390625 
Q 54.890625 11.625 47.5625 5.09375 
Q 40.234375 -1.421875 26.90625 -1.421875 
Q 22.3125 -1.421875 17.546875 -0.640625 
Q 12.796875 0.140625 7.71875 1.703125 
L 7.71875 11.625 
Q 12.109375 9.234375 16.796875 8.0625 
Q 21.484375 6.890625 26.703125 6.890625 
Q 35.15625 6.890625 40.078125 11.328125 
Q 45.015625 15.765625 45.015625 23.390625 
Q 45.015625 31 40.078125 35.4375 
Q 35.15625 39.890625 26.703125 39.890625 
Q 22.75 39.890625 18.8125 39.015625 
Q 14.890625 38.140625 10.796875 36.28125 
z
" id="DejaVuSans-53"/>
      </defs>
      <g transform="translate(34.696875 145.15305)scale(0.1 -0.1)">
       <use xlink:href="#DejaVuSans-49"/>
       <use x="63.623047" xlink:href="#DejaVuSans-46"/>
       <use x="95.410156" xlink:href="#DejaVuSans-53"/>
      </g>
     </g>
    </g>
    <g id="ytick_7">
     <g id="line2d_13">
      <g>
       <use style="stroke:#000000;stroke-width:0.8;" x="57.6" xlink:href="#m0f726cad2c" y="110.526997"/>
      </g>
     </g>
     <g id="text_14">
      <!-- 1.6 -->
      <g transform="translate(34.696875 114.326216)scale(0.1 -0.1)">
       <use xlink:href="#DejaVuSans-49"/>
       <use x="63.623047" xlink:href="#DejaVuSans-46"/>
       <use x="95.410156" xlink:href="#DejaVuSans-54"/>
      </g>
     </g>
    </g>
    <g id="ytick_8">
     <g id="line2d_14">
      <g>
       <use style="stroke:#000000;stroke-width:0.8;" x="57.6" xlink:href="#m0f726cad2c" y="79.700164"/>
      </g>
     </g>
     <g id="text_15">
      <!-- 1.7 -->
      <defs>
       <path d="M 8.203125 72.90625 
L 55.078125 72.90625 
L 55.078125 68.703125 
L 28.609375 0 
L 18.3125 0 
L 43.21875 64.59375 
L 8.203125 64.59375 
z
" id="DejaVuSans-55"/>
      </defs>
      <g transform="translate(34.696875 83.499382)scale(0.1 -0.1)">
       <use xlink:href="#DejaVuSans-49"/>
       <use x="63.623047" xlink:href="#DejaVuSans-46"/>
       <use x="95.410156" xlink:href="#DejaVuSans-55"/>
      </g>
     </g>
    </g>
    <g id="ytick_9">
     <g id="line2d_15">
      <g>
       <use style="stroke:#000000;stroke-width:0.8;" x="57.6" xlink:href="#m0f726cad2c" y="48.87333"/>
      </g>
     </g>
     <g id="text_16">
      <!-- 1.8 -->
      <g transform="translate(34.696875 52.672549)scale(0.1 -0.1)">
       <use xlink:href="#DejaVuSans-49"/>
       <use x="63.623047" xlink:href="#DejaVuSans-46"/>
       <use x="95.410156" xlink:href="#DejaVuSans-56"/>
      </g>
     </g>
    </g>
    <g id="text_17">
     <!-- y -->
     <defs>
      <path d="M 32.171875 -5.078125 
Q 28.375 -14.84375 24.75 -17.8125 
Q 21.140625 -20.796875 15.09375 -20.796875 
L 7.90625 -20.796875 
L 7.90625 -13.28125 
L 13.1875 -13.28125 
Q 16.890625 -13.28125 18.9375 -11.515625 
Q 21 -9.765625 23.484375 -3.21875 
L 25.09375 0.875 
L 2.984375 54.6875 
L 12.5 54.6875 
L 29.59375 11.921875 
L 46.6875 54.6875 
L 56.203125 54.6875 
z
" id="DejaVuSans-121"/>
     </defs>
     <g transform="translate(28.617188 177.487375)rotate(-90)scale(0.1 -0.1)">
      <use xlink:href="#DejaVuSans-121"/>
     </g>
    </g>
   </g>
   <g id="line2d_16">
    <defs>
     <path d="M 0 1 
C 0.265203 1 0.51958 0.894634 0.707107 0.707107 
C 0.894634 0.51958 1 0.265203 1 0 
C 1 -0.265203 0.894634 -0.51958 0.707107 -0.707107 
C 0.51958 -0.894634 0.265203 -1 0 -1 
C -0.265203 -1 -0.51958 -0.894634 -0.707107 -0.707107 
C -0.894634 -0.51958 -1 -0.265203 -1 0 
C -1 0.265203 -0.894634 0.51958 -0.707107 0.707107 
C -0.51958 0.894634 -0.265203 1 0 1 
z
" id="meb19e05998" style="stroke:#1f77b4;"/>
    </defs>
    <g clip-path="url(#pe2915d2863)">
     <use style="fill:#1f77b4;stroke:#1f77b4;" x="73.832727" xlink:href="#meb19e05998" y="295.488"/>
     <use style="fill:#1f77b4;stroke:#1f77b4;" x="106.298182" xlink:href="#meb19e05998" y="264.661166"/>
     <use style="fill:#1f77b4;stroke:#1f77b4;" x="138.763636" xlink:href="#meb19e05998" y="236.356528"/>
     <use style="fill:#1f77b4;stroke:#1f77b4;" x="171.229091" xlink:href="#meb19e05998" y="209.9627"/>
     <use style="fill:#1f77b4;stroke:#1f77b4;" x="203.694545" xlink:href="#meb19e05998" y="185.062397"/>
     <use style="fill:#1f77b4;stroke:#1f77b4;" x="236.16" xlink:href="#meb19e05998" y="161.350298"/>
     <use style="fill:#1f77b4;stroke:#1f77b4;" x="268.625455" xlink:href="#meb19e05998" y="138.589819"/>
     <use style="fill:#1f77b4;stroke:#1f77b4;" x="301.090909" xlink:href="#meb19e05998" y="116.588096"/>
     <use style="fill:#1f77b4;stroke:#1f77b4;" x="333.556364" xlink:href="#meb19e05998" y="95.180342"/>
     <use style="fill:#1f77b4;stroke:#1f77b4;" x="366.021818" xlink:href="#meb19e05998" y="74.219354"/>
     <use style="fill:#1f77b4;stroke:#1f77b4;" x="398.487273" xlink:href="#meb19e05998" y="53.568"/>
    </g>
   </g>
   <g id="line2d_17">
    <defs>
     <path d="M -0 1.414214 
L 0.848528 0 
L 0 -1.414214 
L -0.848528 -0 
z
" id="m42abdd27c9" style="stroke:#ff7f0e;stroke-linejoin:miter;"/>
    </defs>
    <g clip-path="url(#pe2915d2863)">
     <use style="fill:#ff7f0e;stroke:#ff7f0e;stroke-linejoin:miter;" x="73.832727" xlink:href="#m42abdd27c9" y="295.488"/>
     <use style="fill:#ff7f0e;stroke:#ff7f0e;stroke-linejoin:miter;" x="106.298182" xlink:href="#m42abdd27c9" y="265.922264"/>
     <use style="fill:#ff7f0e;stroke:#ff7f0e;stroke-linejoin:miter;" x="138.763636" xlink:href="#m42abdd27c9" y="238.736857"/>
     <use style="fill:#ff7f0e;stroke:#ff7f0e;stroke-linejoin:miter;" x="171.229091" xlink:href="#m42abdd27c9" y="213.426549"/>
     <use style="fill:#ff7f0e;stroke:#ff7f0e;stroke-linejoin:miter;" x="203.694545" xlink:href="#m42abdd27c9" y="189.640937"/>
     <use style="fill:#ff7f0e;stroke:#ff7f0e;stroke-linejoin:miter;" x="236.16" xlink:href="#m42abdd27c9" y="167.12447"/>
     <use style="fill:#ff7f0e;stroke:#ff7f0e;stroke-linejoin:miter;" x="268.625455" xlink:href="#m42abdd27c9" y="145.683274"/>
     <use style="fill:#ff7f0e;stroke:#ff7f0e;stroke-linejoin:miter;" x="301.090909" xlink:href="#m42abdd27c9" y="125.1654"/>
     <use style="fill:#ff7f0e;stroke:#ff7f0e;stroke-linejoin:miter;" x="333.556364" xlink:href="#m42abdd27c9" y="105.448343"/>
     <use style="fill:#ff7f0e;stroke:#ff7f0e;stroke-linejoin:miter;" x="366.021818" xlink:href="#m42abdd27c9" y="86.430782"/>
     <use style="fill:#ff7f0e;stroke:#ff7f0e;stroke-linejoin:miter;" x="398.487273" xlink:href="#m42abdd27c9" y="68.026843"/>
    </g>
   </g>
   <g id="line2d_18">
    <defs>
     <path d="M 0 1 
C 0.265203 1 0.51958 0.894634 0.707107 0.707107 
C 0.894634 0.51958 1 0.265203 1 0 
C 1 -0.265203 0.894634 -0.51958 0.707107 -0.707107 
C 0.51958 -0.894634 0.265203 -1 0 -1 
C -0.265203 -1 -0.51958 -0.894634 -0.707107 -0.707107 
C -0.894634 -0.51958 -1 -0.265203 -1 0 
C -1 0.265203 -0.894634 0.51958 -0.707107 0.707107 
C -0.51958 0.894634 -0.265203 1 0 1 
z
" id="m3a276fafdf" style="stroke:#2ca02c;"/>
    </defs>
    <g clip-path="url(#pe2915d2863)">
     <use style="fill:#2ca02c;stroke:#2ca02c;" x="73.832727" xlink:href="#m3a276fafdf" y="295.488"/>
     <use style="fill:#2ca02c;stroke:#2ca02c;" x="90.065455" xlink:href="#m3a276fafdf" y="280.074583"/>
     <use style="fill:#2ca02c;stroke:#2ca02c;" x="106.298182" xlink:href="#m3a276fafdf" y="265.35844"/>
     <use style="fill:#2ca02c;stroke:#2ca02c;" x="122.530909" xlink:href="#m3a276fafdf" y="251.246759"/>
     <use style="fill:#2ca02c;stroke:#2ca02c;" x="138.763636" xlink:href="#m3a276fafdf" y="237.664973"/>
     <use style="fill:#2ca02c;stroke:#2ca02c;" x="154.996364" xlink:href="#m3a276fafdf" y="224.55197"/>
     <use style="fill:#2ca02c;stroke:#2ca02c;" x="171.229091" xlink:href="#m3a276fafdf" y="211.856802"/>
     <use style="fill:#2ca02c;stroke:#2ca02c;" x="187.461818" xlink:href="#m3a276fafdf" y="199.536345"/>
     <use style="fill:#2ca02c;stroke:#2ca02c;" x="203.694545" xlink:href="#m3a276fafdf" y="187.553607"/>
     <use style="fill:#2ca02c;stroke:#2ca02c;" x="219.927273" xlink:href="#m3a276fafdf" y="175.876459"/>
     <use style="fill:#2ca02c;stroke:#2ca02c;" x="236.16" xlink:href="#m3a276fafdf" y="164.476675"/>
     <use style="fill:#2ca02c;stroke:#2ca02c;" x="252.392727" xlink:href="#m3a276fafdf" y="153.329192"/>
     <use style="fill:#2ca02c;stroke:#2ca02c;" x="268.625455" xlink:href="#m3a276fafdf" y="142.411521"/>
     <use style="fill:#2ca02c;stroke:#2ca02c;" x="284.858182" xlink:href="#m3a276fafdf" y="131.703283"/>
     <use style="fill:#2ca02c;stroke:#2ca02c;" x="301.090909" xlink:href="#m3a276fafdf" y="121.185831"/>
     <use style="fill:#2ca02c;stroke:#2ca02c;" x="317.323636" xlink:href="#m3a276fafdf" y="110.841936"/>
     <use style="fill:#2ca02c;stroke:#2ca02c;" x="333.556364" xlink:href="#m3a276fafdf" y="100.655527"/>
     <use style="fill:#2ca02c;stroke:#2ca02c;" x="349.789091" xlink:href="#m3a276fafdf" y="90.611472"/>
     <use style="fill:#2ca02c;stroke:#2ca02c;" x="366.021818" xlink:href="#m3a276fafdf" y="80.695391"/>
     <use style="fill:#2ca02c;stroke:#2ca02c;" x="382.254545" xlink:href="#m3a276fafdf" y="70.893484"/>
     <use style="fill:#2ca02c;stroke:#2ca02c;" x="398.487273" xlink:href="#m3a276fafdf" y="61.192393"/>
    </g>
   </g>
   <g id="line2d_19">
    <defs>
     <path d="M -0 1.414214 
L 0.848528 0 
L 0 -1.414214 
L -0.848528 -0 
z
" id="m75c5edd8d5" style="stroke:#d62728;stroke-linejoin:miter;"/>
    </defs>
    <g clip-path="url(#pe2915d2863)">
     <use style="fill:#d62728;stroke:#d62728;stroke-linejoin:miter;" x="73.832727" xlink:href="#m75c5edd8d5" y="295.488"/>
     <use style="fill:#d62728;stroke:#d62728;stroke-linejoin:miter;" x="90.065455" xlink:href="#m75c5edd8d5" y="280.42322"/>
     <use style="fill:#d62728;stroke:#d62728;stroke-linejoin:miter;" x="106.298182" xlink:href="#m75c5edd8d5" y="266.029534"/>
     <use style="fill:#d62728;stroke:#d62728;stroke-linejoin:miter;" x="122.530909" xlink:href="#m75c5edd8d5" y="252.224205"/>
     <use style="fill:#d62728;stroke:#d62728;stroke-linejoin:miter;" x="138.763636" xlink:href="#m75c5edd8d5" y="238.940186"/>
     <use style="fill:#d62728;stroke:#d62728;stroke-linejoin:miter;" x="154.996364" xlink:href="#m75c5edd8d5" y="226.122233"/>
     <use style="fill:#d62728;stroke:#d62728;stroke-linejoin:miter;" x="171.229091" xlink:href="#m75c5edd8d5" y="213.724184"/>
     <use style="fill:#d62728;stroke:#d62728;stroke-linejoin:miter;" x="187.461818" xlink:href="#m75c5edd8d5" y="201.706987"/>
     <use style="fill:#d62728;stroke:#d62728;stroke-linejoin:miter;" x="203.694545" xlink:href="#m75c5edd8d5" y="190.037249"/>
     <use style="fill:#d62728;stroke:#d62728;stroke-linejoin:miter;" x="219.927273" xlink:href="#m75c5edd8d5" y="178.686145"/>
     <use style="fill:#d62728;stroke:#d62728;stroke-linejoin:miter;" x="236.16" xlink:href="#m75c5edd8d5" y="167.628582"/>
     <use style="fill:#d62728;stroke:#d62728;stroke-linejoin:miter;" x="252.392727" xlink:href="#m75c5edd8d5" y="156.842546"/>
     <use style="fill:#d62728;stroke:#d62728;stroke-linejoin:miter;" x="268.625455" xlink:href="#m75c5edd8d5" y="146.308595"/>
     <use style="fill:#d62728;stroke:#d62728;stroke-linejoin:miter;" x="284.858182" xlink:href="#m75c5edd8d5" y="136.009446"/>
     <use style="fill:#d62728;stroke:#d62728;stroke-linejoin:miter;" x="301.090909" xlink:href="#m75c5edd8d5" y="125.92965"/>
     <use style="fill:#d62728;stroke:#d62728;stroke-linejoin:miter;" x="317.323636" xlink:href="#m75c5edd8d5" y="116.055318"/>
     <use style="fill:#d62728;stroke:#d62728;stroke-linejoin:miter;" x="333.556364" xlink:href="#m75c5edd8d5" y="106.373905"/>
     <use style="fill:#d62728;stroke:#d62728;stroke-linejoin:miter;" x="349.789091" xlink:href="#m75c5edd8d5" y="96.874025"/>
     <use style="fill:#d62728;stroke:#d62728;stroke-linejoin:miter;" x="366.021818" xlink:href="#m75c5edd8d5" y="87.545297"/>
     <use style="fill:#d62728;stroke:#d62728;stroke-linejoin:miter;" x="382.254545" xlink:href="#m75c5edd8d5" y="78.378216"/>
     <use style="fill:#d62728;stroke:#d62728;stroke-linejoin:miter;" x="398.487273" xlink:href="#m75c5edd8d5" y="69.364043"/>
    </g>
   </g>
   <g id="line2d_20">
    <path clip-path="url(#pe2915d2863)" d="M 73.832727 295.488 
L 77.112066 292.389748 
L 80.391405 289.322023 
L 83.670744 286.283939 
L 86.950083 283.274655 
L 90.229421 280.293366 
L 93.50876 277.339305 
L 96.788099 274.411739 
L 100.067438 271.509969 
L 103.346777 268.633323 
L 106.626116 265.781161 
L 109.905455 262.952867 
L 113.184793 260.147853 
L 116.464132 257.365553 
L 119.743471 254.605423 
L 123.02281 251.866943 
L 126.302149 249.14961 
L 129.581488 246.452942 
L 132.860826 243.776475 
L 136.140165 241.119761 
L 139.419504 238.482369 
L 142.698843 235.863884 
L 145.978182 233.263905 
L 149.257521 230.682045 
L 152.53686 228.11793 
L 155.816198 225.5712 
L 159.095537 223.041505 
L 162.374876 220.528509 
L 165.654215 218.031884 
L 168.933554 215.551316 
L 172.212893 213.086497 
L 175.492231 210.637132 
L 178.77157 208.202934 
L 182.050909 205.783625 
L 185.330248 203.378934 
L 188.609587 200.9886 
L 191.888926 198.612369 
L 195.168264 196.249993 
L 198.447603 193.901234 
L 201.726942 191.565858 
L 205.006281 189.24364 
L 208.28562 186.934359 
L 211.564959 184.637802 
L 214.844298 182.35376 
L 218.123636 180.082032 
L 221.402975 177.82242 
L 224.682314 175.574732 
L 227.961653 173.338781 
L 231.240992 171.114386 
L 234.520331 168.901369 
L 237.799669 166.699558 
L 241.079008 164.508783 
L 244.358347 162.328882 
L 247.637686 160.159692 
L 250.917025 158.001058 
L 254.196364 155.852827 
L 257.475702 153.714851 
L 260.755041 151.586983 
L 264.03438 149.469082 
L 267.313719 147.36101 
L 270.593058 145.262629 
L 273.872397 143.173809 
L 277.151736 141.094419 
L 280.431074 139.024333 
L 283.710413 136.963427 
L 286.989752 134.91158 
L 290.269091 132.868674 
L 293.54843 130.834592 
L 296.827769 128.809222 
L 300.107107 126.792453 
L 303.386446 124.784175 
L 306.665785 122.784282 
L 309.945124 120.792671 
L 313.224463 118.809239 
L 316.503802 116.833886 
L 319.78314 114.866515 
L 323.062479 112.907029 
L 326.341818 110.955334 
L 329.621157 109.011338 
L 332.900496 107.074951 
L 336.179835 105.146084 
L 339.459174 103.22465 
L 342.738512 101.310564 
L 346.017851 99.403742 
L 349.29719 97.504102 
L 352.576529 95.611564 
L 355.855868 93.726048 
L 359.135207 91.847477 
L 362.414545 89.975775 
L 365.693884 88.110867 
L 368.973223 86.252679 
L 372.252562 84.401139 
L 375.531901 82.556177 
L 378.81124 80.717723 
L 382.090579 78.885708 
L 385.369917 77.060065 
L 388.649256 75.240729 
L 391.928595 73.427634 
L 395.207934 71.620717 
L 398.487273 69.819914 
" style="fill:none;stroke:#9467bd;stroke-linecap:square;stroke-width:2;"/>
   </g>
   <g id="patch_3">
    <path d="M 57.6 307.584 
L 57.6 41.472 
" style="fill:none;stroke:#000000;stroke-linecap:square;stroke-linejoin:miter;stroke-width:0.8;"/>
   </g>
   <g id="patch_4">
    <path d="M 414.72 307.584 
L 414.72 41.472 
" style="fill:none;stroke:#000000;stroke-linecap:square;stroke-linejoin:miter;stroke-width:0.8;"/>
   </g>
   <g id="patch_5">
    <path d="M 57.6 307.584 
L 414.72 307.584 
" style="fill:none;stroke:#000000;stroke-linecap:square;stroke-linejoin:miter;stroke-width:0.8;"/>
   </g>
   <g id="patch_6">
    <path d="M 57.6 41.472 
L 414.72 41.472 
" style="fill:none;stroke:#000000;stroke-linecap:square;stroke-linejoin:miter;stroke-width:0.8;"/>
   </g>
   <g id="text_18">
    <!-- Euler方法和改进Euler方法求ODE的数值解 -->
    <defs>
     <path d="M 9.8125 72.90625 
L 55.90625 72.90625 
L 55.90625 64.59375 
L 19.671875 64.59375 
L 19.671875 43.015625 
L 54.390625 43.015625 
L 54.390625 34.71875 
L 19.671875 34.71875 
L 19.671875 8.296875 
L 56.78125 8.296875 
L 56.78125 0 
L 9.8125 0 
z
" id="DejaVuSans-69"/>
     <path d="M 8.5 21.578125 
L 8.5 54.6875 
L 17.484375 54.6875 
L 17.484375 21.921875 
Q 17.484375 14.15625 20.5 10.265625 
Q 23.53125 6.390625 29.59375 6.390625 
Q 36.859375 6.390625 41.078125 11.03125 
Q 45.3125 15.671875 45.3125 23.6875 
L 45.3125 54.6875 
L 54.296875 54.6875 
L 54.296875 0 
L 45.3125 0 
L 45.3125 8.40625 
Q 42.046875 3.421875 37.71875 1 
Q 33.40625 -1.421875 27.6875 -1.421875 
Q 18.265625 -1.421875 13.375 4.4375 
Q 8.5 10.296875 8.5 21.578125 
z
M 31.109375 56 
z
" id="DejaVuSans-117"/>
     <path d="M 9.421875 75.984375 
L 18.40625 75.984375 
L 18.40625 0 
L 9.421875 0 
z
" id="DejaVuSans-108"/>
     <path d="M 56.203125 29.59375 
L 56.203125 25.203125 
L 14.890625 25.203125 
Q 15.484375 15.921875 20.484375 11.0625 
Q 25.484375 6.203125 34.421875 6.203125 
Q 39.59375 6.203125 44.453125 7.46875 
Q 49.3125 8.734375 54.109375 11.28125 
L 54.109375 2.78125 
Q 49.265625 0.734375 44.1875 -0.34375 
Q 39.109375 -1.421875 33.890625 -1.421875 
Q 20.796875 -1.421875 13.15625 6.1875 
Q 5.515625 13.8125 5.515625 26.8125 
Q 5.515625 40.234375 12.765625 48.109375 
Q 20.015625 56 32.328125 56 
Q 43.359375 56 49.78125 48.890625 
Q 56.203125 41.796875 56.203125 29.59375 
z
M 47.21875 32.234375 
Q 47.125 39.59375 43.09375 43.984375 
Q 39.0625 48.390625 32.421875 48.390625 
Q 24.90625 48.390625 20.390625 44.140625 
Q 15.875 39.890625 15.1875 32.171875 
z
" id="DejaVuSans-101"/>
     <path d="M 41.109375 46.296875 
Q 39.59375 47.171875 37.8125 47.578125 
Q 36.03125 48 33.890625 48 
Q 26.265625 48 22.1875 43.046875 
Q 18.109375 38.09375 18.109375 28.8125 
L 18.109375 0 
L 9.078125 0 
L 9.078125 54.6875 
L 18.109375 54.6875 
L 18.109375 46.1875 
Q 20.953125 51.171875 25.484375 53.578125 
Q 30.03125 56 36.53125 56 
Q 37.453125 56 38.578125 55.875 
Q 39.703125 55.765625 41.0625 55.515625 
z
" id="DejaVuSans-114"/>
     <path d="M 4.984375 -17.671875 
L 4.984375 70.515625 
L 54.984375 70.515625 
L 54.984375 -17.671875 
z
M 10.59375 -12.109375 
L 49.421875 -12.109375 
L 49.421875 64.890625 
L 10.59375 64.890625 
z
" id="DejaVuSans-26041"/>
     <path d="M 4.984375 -17.671875 
L 4.984375 70.515625 
L 54.984375 70.515625 
L 54.984375 -17.671875 
z
M 10.59375 -12.109375 
L 49.421875 -12.109375 
L 49.421875 64.890625 
L 10.59375 64.890625 
z
" id="DejaVuSans-27861"/>
     <path d="M 4.984375 -17.671875 
L 4.984375 70.515625 
L 54.984375 70.515625 
L 54.984375 -17.671875 
z
M 10.59375 -12.109375 
L 49.421875 -12.109375 
L 49.421875 64.890625 
L 10.59375 64.890625 
z
" id="DejaVuSans-21644"/>
     <path d="M 4.984375 -17.671875 
L 4.984375 70.515625 
L 54.984375 70.515625 
L 54.984375 -17.671875 
z
M 10.59375 -12.109375 
L 49.421875 -12.109375 
L 49.421875 64.890625 
L 10.59375 64.890625 
z
" id="DejaVuSans-25913"/>
     <path d="M 4.984375 -17.671875 
L 4.984375 70.515625 
L 54.984375 70.515625 
L 54.984375 -17.671875 
z
M 10.59375 -12.109375 
L 49.421875 -12.109375 
L 49.421875 64.890625 
L 10.59375 64.890625 
z
" id="DejaVuSans-36827"/>
     <path d="M 4.984375 -17.671875 
L 4.984375 70.515625 
L 54.984375 70.515625 
L 54.984375 -17.671875 
z
M 10.59375 -12.109375 
L 49.421875 -12.109375 
L 49.421875 64.890625 
L 10.59375 64.890625 
z
" id="DejaVuSans-27714"/>
     <path d="M 39.40625 66.21875 
Q 28.65625 66.21875 22.328125 58.203125 
Q 16.015625 50.203125 16.015625 36.375 
Q 16.015625 22.609375 22.328125 14.59375 
Q 28.65625 6.59375 39.40625 6.59375 
Q 50.140625 6.59375 56.421875 14.59375 
Q 62.703125 22.609375 62.703125 36.375 
Q 62.703125 50.203125 56.421875 58.203125 
Q 50.140625 66.21875 39.40625 66.21875 
z
M 39.40625 74.21875 
Q 54.734375 74.21875 63.90625 63.9375 
Q 73.09375 53.65625 73.09375 36.375 
Q 73.09375 19.140625 63.90625 8.859375 
Q 54.734375 -1.421875 39.40625 -1.421875 
Q 24.03125 -1.421875 14.8125 8.828125 
Q 5.609375 19.09375 5.609375 36.375 
Q 5.609375 53.65625 14.8125 63.9375 
Q 24.03125 74.21875 39.40625 74.21875 
z
" id="DejaVuSans-79"/>
     <path d="M 19.671875 64.796875 
L 19.671875 8.109375 
L 31.59375 8.109375 
Q 46.6875 8.109375 53.6875 14.9375 
Q 60.6875 21.78125 60.6875 36.53125 
Q 60.6875 51.171875 53.6875 57.984375 
Q 46.6875 64.796875 31.59375 64.796875 
z
M 9.8125 72.90625 
L 30.078125 72.90625 
Q 51.265625 72.90625 61.171875 64.09375 
Q 71.09375 55.28125 71.09375 36.53125 
Q 71.09375 17.671875 61.125 8.828125 
Q 51.171875 0 30.078125 0 
L 9.8125 0 
z
" id="DejaVuSans-68"/>
     <path d="M 4.984375 -17.671875 
L 4.984375 70.515625 
L 54.984375 70.515625 
L 54.984375 -17.671875 
z
M 10.59375 -12.109375 
L 49.421875 -12.109375 
L 49.421875 64.890625 
L 10.59375 64.890625 
z
" id="DejaVuSans-30340"/>
     <path d="M 4.984375 -17.671875 
L 4.984375 70.515625 
L 54.984375 70.515625 
L 54.984375 -17.671875 
z
M 10.59375 -12.109375 
L 49.421875 -12.109375 
L 49.421875 64.890625 
L 10.59375 64.890625 
z
" id="DejaVuSans-25968"/>
     <path d="M 4.984375 -17.671875 
L 4.984375 70.515625 
L 54.984375 70.515625 
L 54.984375 -17.671875 
z
M 10.59375 -12.109375 
L 49.421875 -12.109375 
L 49.421875 64.890625 
L 10.59375 64.890625 
z
" id="DejaVuSans-20540"/>
     <path d="M 4.984375 -17.671875 
L 4.984375 70.515625 
L 54.984375 70.515625 
L 54.984375 -17.671875 
z
M 10.59375 -12.109375 
L 49.421875 -12.109375 
L 49.421875 64.890625 
L 10.59375 64.890625 
z
" id="DejaVuSans-35299"/>
    </defs>
    <g transform="translate(148.97625 35.472)scale(0.12 -0.12)">
     <use xlink:href="#DejaVuSans-69"/>
     <use x="63.183594" xlink:href="#DejaVuSans-117"/>
     <use x="126.5625" xlink:href="#DejaVuSans-108"/>
     <use x="154.345703" xlink:href="#DejaVuSans-101"/>
     <use x="215.869141" xlink:href="#DejaVuSans-114"/>
     <use x="256.982422" xlink:href="#DejaVuSans-26041"/>
     <use x="316.992188" xlink:href="#DejaVuSans-27861"/>
     <use x="377.001953" xlink:href="#DejaVuSans-21644"/>
     <use x="437.011719" xlink:href="#DejaVuSans-25913"/>
     <use x="497.021484" xlink:href="#DejaVuSans-36827"/>
     <use x="557.03125" xlink:href="#DejaVuSans-69"/>
     <use x="620.214844" xlink:href="#DejaVuSans-117"/>
     <use x="683.59375" xlink:href="#DejaVuSans-108"/>
     <use x="711.376953" xlink:href="#DejaVuSans-101"/>
     <use x="772.900391" xlink:href="#DejaVuSans-114"/>
     <use x="814.013672" xlink:href="#DejaVuSans-26041"/>
     <use x="874.023438" xlink:href="#DejaVuSans-27861"/>
     <use x="934.033203" xlink:href="#DejaVuSans-27714"/>
     <use x="994.042969" xlink:href="#DejaVuSans-79"/>
     <use x="1072.753906" xlink:href="#DejaVuSans-68"/>
     <use x="1149.755859" xlink:href="#DejaVuSans-69"/>
     <use x="1212.939453" xlink:href="#DejaVuSans-30340"/>
     <use x="1272.949219" xlink:href="#DejaVuSans-25968"/>
     <use x="1332.958984" xlink:href="#DejaVuSans-20540"/>
     <use x="1392.96875" xlink:href="#DejaVuSans-35299"/>
    </g>
   </g>
   <g id="legend_1">
    <g id="patch_7">
     <path d="M 64.6 122.862625 
L 183.2875 122.862625 
Q 185.2875 122.862625 185.2875 120.862625 
L 185.2875 48.472 
Q 185.2875 46.472 183.2875 46.472 
L 64.6 46.472 
Q 62.6 46.472 62.6 48.472 
L 62.6 120.862625 
Q 62.6 122.862625 64.6 122.862625 
z
" style="fill:#ffffff;opacity:0.8;stroke:#cccccc;stroke-linejoin:miter;"/>
    </g>
    <g id="line2d_21"/>
    <g id="line2d_22">
     <g>
      <use style="fill:#1f77b4;stroke:#1f77b4;" x="76.6" xlink:href="#meb19e05998" y="54.570438"/>
     </g>
    </g>
    <g id="text_19">
     <!-- Euler方法h=0.1 -->
     <defs>
      <path d="M 54.890625 33.015625 
L 54.890625 0 
L 45.90625 0 
L 45.90625 32.71875 
Q 45.90625 40.484375 42.875 44.328125 
Q 39.84375 48.1875 33.796875 48.1875 
Q 26.515625 48.1875 22.3125 43.546875 
Q 18.109375 38.921875 18.109375 30.90625 
L 18.109375 0 
L 9.078125 0 
L 9.078125 75.984375 
L 18.109375 75.984375 
L 18.109375 46.1875 
Q 21.34375 51.125 25.703125 53.5625 
Q 30.078125 56 35.796875 56 
Q 45.21875 56 50.046875 50.171875 
Q 54.890625 44.34375 54.890625 33.015625 
z
" id="DejaVuSans-104"/>
      <path d="M 10.59375 45.40625 
L 73.1875 45.40625 
L 73.1875 37.203125 
L 10.59375 37.203125 
z
M 10.59375 25.484375 
L 73.1875 25.484375 
L 73.1875 17.1875 
L 10.59375 17.1875 
z
" id="DejaVuSans-61"/>
     </defs>
     <g transform="translate(94.6 58.070438)scale(0.1 -0.1)">
      <use xlink:href="#DejaVuSans-69"/>
      <use x="63.183594" xlink:href="#DejaVuSans-117"/>
      <use x="126.5625" xlink:href="#DejaVuSans-108"/>
      <use x="154.345703" xlink:href="#DejaVuSans-101"/>
      <use x="215.869141" xlink:href="#DejaVuSans-114"/>
      <use x="256.982422" xlink:href="#DejaVuSans-26041"/>
      <use x="316.992188" xlink:href="#DejaVuSans-27861"/>
      <use x="377.001953" xlink:href="#DejaVuSans-104"/>
      <use x="440.380859" xlink:href="#DejaVuSans-61"/>
      <use x="524.169922" xlink:href="#DejaVuSans-48"/>
      <use x="587.792969" xlink:href="#DejaVuSans-46"/>
      <use x="619.580078" xlink:href="#DejaVuSans-49"/>
     </g>
    </g>
    <g id="line2d_23"/>
    <g id="line2d_24">
     <g>
      <use style="fill:#ff7f0e;stroke:#ff7f0e;stroke-linejoin:miter;" x="76.6" xlink:href="#m42abdd27c9" y="69.248563"/>
     </g>
    </g>
    <g id="text_20">
     <!-- 改进Euler方法h=0.1 -->
     <g transform="translate(94.6 72.748563)scale(0.1 -0.1)">
      <use xlink:href="#DejaVuSans-25913"/>
      <use x="60.009766" xlink:href="#DejaVuSans-36827"/>
      <use x="120.019531" xlink:href="#DejaVuSans-69"/>
      <use x="183.203125" xlink:href="#DejaVuSans-117"/>
      <use x="246.582031" xlink:href="#DejaVuSans-108"/>
      <use x="274.365234" xlink:href="#DejaVuSans-101"/>
      <use x="335.888672" xlink:href="#DejaVuSans-114"/>
      <use x="377.001953" xlink:href="#DejaVuSans-26041"/>
      <use x="437.011719" xlink:href="#DejaVuSans-27861"/>
      <use x="497.021484" xlink:href="#DejaVuSans-104"/>
      <use x="560.400391" xlink:href="#DejaVuSans-61"/>
      <use x="644.189453" xlink:href="#DejaVuSans-48"/>
      <use x="707.8125" xlink:href="#DejaVuSans-46"/>
      <use x="739.599609" xlink:href="#DejaVuSans-49"/>
     </g>
    </g>
    <g id="line2d_25"/>
    <g id="line2d_26">
     <g>
      <use style="fill:#2ca02c;stroke:#2ca02c;" x="76.6" xlink:href="#m3a276fafdf" y="83.926688"/>
     </g>
    </g>
    <g id="text_21">
     <!-- Euler方法h=0.05 -->
     <g transform="translate(94.6 87.426688)scale(0.1 -0.1)">
      <use xlink:href="#DejaVuSans-69"/>
      <use x="63.183594" xlink:href="#DejaVuSans-117"/>
      <use x="126.5625" xlink:href="#DejaVuSans-108"/>
      <use x="154.345703" xlink:href="#DejaVuSans-101"/>
      <use x="215.869141" xlink:href="#DejaVuSans-114"/>
      <use x="256.982422" xlink:href="#DejaVuSans-26041"/>
      <use x="316.992188" xlink:href="#DejaVuSans-27861"/>
      <use x="377.001953" xlink:href="#DejaVuSans-104"/>
      <use x="440.380859" xlink:href="#DejaVuSans-61"/>
      <use x="524.169922" xlink:href="#DejaVuSans-48"/>
      <use x="587.792969" xlink:href="#DejaVuSans-46"/>
      <use x="619.580078" xlink:href="#DejaVuSans-48"/>
      <use x="683.203125" xlink:href="#DejaVuSans-53"/>
     </g>
    </g>
    <g id="line2d_27"/>
    <g id="line2d_28">
     <g>
      <use style="fill:#d62728;stroke:#d62728;stroke-linejoin:miter;" x="76.6" xlink:href="#m75c5edd8d5" y="98.604813"/>
     </g>
    </g>
    <g id="text_22">
     <!-- 改进Euler方法h=0.05 -->
     <g transform="translate(94.6 102.104813)scale(0.1 -0.1)">
      <use xlink:href="#DejaVuSans-25913"/>
      <use x="60.009766" xlink:href="#DejaVuSans-36827"/>
      <use x="120.019531" xlink:href="#DejaVuSans-69"/>
      <use x="183.203125" xlink:href="#DejaVuSans-117"/>
      <use x="246.582031" xlink:href="#DejaVuSans-108"/>
      <use x="274.365234" xlink:href="#DejaVuSans-101"/>
      <use x="335.888672" xlink:href="#DejaVuSans-114"/>
      <use x="377.001953" xlink:href="#DejaVuSans-26041"/>
      <use x="437.011719" xlink:href="#DejaVuSans-27861"/>
      <use x="497.021484" xlink:href="#DejaVuSans-104"/>
      <use x="560.400391" xlink:href="#DejaVuSans-61"/>
      <use x="644.189453" xlink:href="#DejaVuSans-48"/>
      <use x="707.8125" xlink:href="#DejaVuSans-46"/>
      <use x="739.599609" xlink:href="#DejaVuSans-48"/>
      <use x="803.222656" xlink:href="#DejaVuSans-53"/>
     </g>
    </g>
    <g id="line2d_29">
     <path d="M 66.6 113.282938 
L 86.6 113.282938 
" style="fill:none;stroke:#9467bd;stroke-linecap:square;stroke-width:2;"/>
    </g>
    <g id="line2d_30"/>
    <g id="text_23">
     <!-- 解析解 -->
     <defs>
      <path d="M 4.984375 -17.671875 
L 4.984375 70.515625 
L 54.984375 70.515625 
L 54.984375 -17.671875 
z
M 10.59375 -12.109375 
L 49.421875 -12.109375 
L 49.421875 64.890625 
L 10.59375 64.890625 
z
" id="DejaVuSans-26512"/>
     </defs>
     <g transform="translate(94.6 116.782938)scale(0.1 -0.1)">
      <use xlink:href="#DejaVuSans-35299"/>
      <use x="60.009766" xlink:href="#DejaVuSans-26512"/>
      <use x="120.019531" xlink:href="#DejaVuSans-35299"/>
     </g>
    </g>
   </g>
  </g>
 </g>
 <defs>
  <clipPath id="pe2915d2863">
   <rect height="266.112" width="357.12" x="57.6" y="41.472"/>
  </clipPath>
 </defs>
</svg>
